<?xml version="1.0" encoding="UTF-8"?>
<svg id="Layer_2" xmlns="http://www.w3.org/2000/svg" viewBox="0 0 506.31 81.96">
  <defs>
    <style>
      .cls-1 {
        fill: #160d3f;
      }
    </style>
  </defs>
  <g id="Layer_1-2" data-name="Layer_1">
    <g>
      <path class="cls-1" d="M0,52.07c0-17.02,13.1-29.9,30.57-29.9,14.89,0,26.65,9.4,29,22.84h-13.33c-2.02-6.38-8.17-10.75-15.68-10.75-10.08,0-17.69,7.73-17.69,17.8s7.62,17.81,17.69,17.81c7.5,0,13.66-4.37,15.68-10.75h13.33c-2.35,13.44-14.11,22.84-29,22.84-17.47,0-30.57-12.88-30.57-29.9"/>
      <path class="cls-1" d="M228,52.07c0-17.02,13.1-29.9,30.46-29.9s30.57,12.88,30.57,30.01c0,1.57-.11,3.25-.34,4.7h-47.25c1.9,8.29,8.62,13.77,17.58,13.77,6.61,0,12.32-2.91,15.23-7.28h13.88c-4.59,11.09-15.79,18.59-29.34,18.59-17.69,0-30.79-12.88-30.79-29.9M241.55,46.58h34.04c-1.9-7.84-8.62-13.1-17.13-13.1s-14.89,5.15-16.91,13.1"/>
      <path class="cls-1" d="M295.14,52.07c0-17.02,11.98-29.9,28.11-29.9,8.4,0,15.34,3.58,20.04,9.52v-8.18h12.54v57.11h-12.54v-8.17c-4.7,5.93-11.65,9.52-20.04,9.52-16.13,0-28.11-12.88-28.11-29.9M343.29,52.07c0-10.08-7.5-17.8-17.58-17.8s-17.69,7.73-17.69,17.8,7.5,17.81,17.69,17.81,17.58-7.73,17.58-17.81"/>
      <polygon class="cls-1" points="427.5 8 440.04 0 440.04 80.62 427.5 80.62 427.5 8"/>
      <path class="cls-1" d="M445.28,52.07c0-17.02,13.1-29.9,30.46-29.9s30.57,12.88,30.57,30.01c0,1.57-.11,3.25-.34,4.7h-47.25c1.9,8.29,8.62,13.77,17.58,13.77,6.61,0,12.32-2.91,15.23-7.28h13.89c-4.59,11.09-15.79,18.59-29.34,18.59-17.69,0-30.79-12.88-30.79-29.9M458.83,46.58h34.04c-1.9-7.84-8.62-13.1-17.13-13.1s-14.89,5.15-16.91,13.1"/>
      <path class="cls-1" d="M210.22,8v23.69c-4.7-5.94-11.64-9.52-20.04-9.52-16.12,0-28.11,12.88-28.11,29.9s11.98,29.9,28.11,29.9c2.62,0,5.07-.38,7.38-1.04l6.72-15.31c-3.05,2.67-7.07,4.26-11.63,4.26-10.19,0-17.69-7.73-17.69-17.81s7.5-17.8,17.69-17.8,17.58,7.73,17.58,17.8h0s0,0,0,0v28.55h12.54V0l-12.54,8Z"/>
      <path class="cls-1" d="M394.04,22.17c-8.4,0-15.34,3.58-20.16,9.52V0l-12.54,8v72.62h12.54v-28.55h0c0-10.08,7.61-17.81,17.69-17.81s17.58,7.73,17.58,17.8-7.5,17.81-17.58,17.81c-4.62,0-8.7-1.63-11.79-4.36l6.75,15.37c2.35.68,4.84,1.08,7.5,1.08,16.01,0,28.11-12.88,28.11-29.9s-12.09-29.9-28.11-29.9"/>
      <polygon class="cls-1" points="89.16 52.07 110.77 30.47 117.45 23.78 104.08 23.78 95.13 23.78 66.84 52.07 94.87 80.11 106.03 68.95 89.16 52.07"/>
      <polygon class="cls-1" points="126.67 24.05 115.5 35.21 132.37 52.07 110.77 73.69 104.08 80.37 117.45 80.37 126.4 80.37 154.7 52.07 126.67 24.05"/>
      <rect class="cls-1" x="102.18" y="43.53" width="17.08" height="17.08" transform="translate(-4.39 93.54) rotate(-45)"/>
    </g>
  </g>
</svg>